<svg width="112" height="32" viewBox="0 0 112 32" fill="none" xmlns="http://www.w3.org/2000/svg">
<g clip-path="url(#clip0_1_3497)">
<path d="M16.7258 3.3692L14.1038 2.66663L11.8942 10.913L9.89931 3.46812L7.27723 4.1707L9.43257 12.2144L4.06413 6.84595L2.14467 8.76542L8.03317 14.654L0.699979 12.689L-0.00259399 15.311L8.00984 17.458C7.9181 17.0623 7.86957 16.65 7.86957 16.2264C7.86957 13.228 10.3002 10.7974 13.2986 10.7974C16.2971 10.7974 18.7277 13.228 18.7277 16.2264C18.7277 16.6473 18.6798 17.057 18.5892 17.4504L25.871 19.4015L26.5735 16.7795L18.5293 14.624L25.8629 12.659L25.1603 10.037L17.1164 12.1923L22.4848 6.82391L20.5653 4.90445L14.7585 10.7113L16.7258 3.3692Z" fill="#FF4405"/>
<path d="M18.5815 17.4809C18.3567 18.4313 17.8821 19.2851 17.2309 19.9692L22.5063 25.2446L24.4257 23.3251L18.5815 17.4809Z" fill="#FF4405"/>
<path d="M17.1777 20.0243C16.5186 20.6975 15.6857 21.1998 14.7517 21.4587L16.6713 28.6227L19.2933 27.9201L17.1777 20.0243Z" fill="#FF4405"/>
<path d="M14.6538 21.4849C14.2205 21.5963 13.7663 21.6555 13.2982 21.6555C12.7967 21.6555 12.3111 21.5875 11.8501 21.4602L9.92878 28.6308L12.5508 29.3333L14.6538 21.4849Z" fill="#FF4405"/>
<path d="M11.7574 21.4338C10.8377 21.162 10.0196 20.6533 9.37401 19.9782L4.08567 25.2666L6.00514 27.1861L11.7574 21.4338Z" fill="#FF4405"/>
<path d="M9.33043 19.9315C8.69589 19.2522 8.23369 18.4098 8.01369 17.474L0.708101 19.4316L1.41067 22.0536L9.33043 19.9315Z" fill="#FF4405"/>
</g>
<path d="M33.3333 22V9.65196H35.7993L40.7673 16.312C40.8393 16.396 40.9293 16.516 41.0373 16.672C41.1453 16.816 41.2473 16.96 41.3433 17.104C41.4393 17.248 41.5053 17.362 41.5413 17.446H41.6313C41.6313 17.242 41.6313 17.044 41.6313 16.852C41.6313 16.648 41.6313 16.468 41.6313 16.312V9.65196H44.1693V22H41.7033L36.6273 15.178C36.5073 15.01 36.3813 14.824 36.2493 14.62C36.1173 14.416 36.0213 14.26 35.9613 14.152H35.8713C35.8713 14.332 35.8713 14.512 35.8713 14.692C35.8713 14.86 35.8713 15.022 35.8713 15.178V22H33.3333Z" fill="#0A0D12"/>
<path d="M45.9677 11.146V8.98596H48.4697V11.146H45.9677ZM45.9677 22V12.532H48.4697V22H45.9677Z" fill="#0A0D12"/>
<path d="M54.3485 22.216C53.3045 22.216 52.4285 22.042 51.7205 21.694C51.0125 21.334 50.4785 20.788 50.1185 20.056C49.7585 19.324 49.5785 18.394 49.5785 17.266C49.5785 16.126 49.7585 15.196 50.1185 14.476C50.4785 13.744 51.0065 13.204 51.7025 12.856C52.4105 12.496 53.2745 12.316 54.2945 12.316C55.2545 12.316 56.0645 12.49 56.7245 12.838C57.3845 13.174 57.8825 13.702 58.2185 14.422C58.5545 15.13 58.7225 16.048 58.7225 17.176V17.824H52.1165C52.1405 18.376 52.2245 18.844 52.3685 19.228C52.5245 19.612 52.7585 19.9 53.0705 20.092C53.3945 20.272 53.8205 20.362 54.3485 20.362C54.6365 20.362 54.8945 20.326 55.1225 20.254C55.3625 20.182 55.5665 20.074 55.7345 19.93C55.9025 19.786 56.0345 19.606 56.1305 19.39C56.2265 19.174 56.2745 18.928 56.2745 18.652H58.7225C58.7225 19.252 58.6145 19.774 58.3985 20.218C58.1825 20.662 57.8825 21.034 57.4985 21.334C57.1145 21.622 56.6525 21.844 56.1125 22C55.5845 22.144 54.9965 22.216 54.3485 22.216ZM52.1525 16.24H56.1485C56.1485 15.88 56.1005 15.568 56.0045 15.304C55.9205 15.04 55.8005 14.824 55.6445 14.656C55.4885 14.488 55.2965 14.368 55.0685 14.296C54.8525 14.212 54.6065 14.17 54.3305 14.17C53.8745 14.17 53.4905 14.248 53.1785 14.404C52.8785 14.548 52.6445 14.776 52.4765 15.088C52.3205 15.388 52.2125 15.772 52.1525 16.24Z" fill="#0A0D12"/>
<path d="M62.6642 22.216C62.0642 22.216 61.5782 22.108 61.2062 21.892C60.8342 21.676 60.5642 21.388 60.3962 21.028C60.2282 20.656 60.1442 20.248 60.1442 19.804V14.458H58.9742V12.532H60.2342L60.7022 9.83196H62.6462V12.532H64.3742V14.458H62.6462V19.39C62.6462 19.678 62.7122 19.9 62.8442 20.056C62.9762 20.2 63.1922 20.272 63.4922 20.272H64.3742V21.928C64.2302 21.976 64.0622 22.018 63.8702 22.054C63.6782 22.102 63.4742 22.138 63.2582 22.162C63.0422 22.198 62.8442 22.216 62.6642 22.216Z" fill="#0A0D12"/>
<path d="M64.5325 22V20.938L69.1585 14.458H64.8205V12.532H72.7766V13.558L68.1325 20.056H72.9566V22H64.5325Z" fill="#0A0D12"/>
<path d="M77.7185 22.216C77.0585 22.216 76.4645 22.144 75.9365 22C75.4085 21.856 74.9585 21.658 74.5865 21.406C74.2145 21.142 73.9265 20.83 73.7225 20.47C73.5305 20.11 73.4345 19.702 73.4345 19.246C73.4345 19.198 73.4345 19.15 73.4345 19.102C73.4345 19.054 73.4405 19.018 73.4525 18.994H75.8645C75.8645 19.018 75.8645 19.042 75.8645 19.066C75.8645 19.09 75.8645 19.114 75.8645 19.138C75.8765 19.438 75.9725 19.684 76.1525 19.876C76.3325 20.056 76.5665 20.188 76.8545 20.272C77.1545 20.356 77.4665 20.398 77.7905 20.398C78.0785 20.398 78.3545 20.374 78.6185 20.326C78.8945 20.266 79.1225 20.164 79.3025 20.02C79.4945 19.876 79.5905 19.69 79.5905 19.462C79.5905 19.174 79.4705 18.952 79.2305 18.796C79.0025 18.64 78.6965 18.514 78.3125 18.418C77.9405 18.322 77.5325 18.214 77.0885 18.094C76.6805 17.998 76.2725 17.89 75.8645 17.77C75.4565 17.638 75.0845 17.47 74.7485 17.266C74.4245 17.062 74.1605 16.798 73.9565 16.474C73.7525 16.138 73.6505 15.718 73.6505 15.214C73.6505 14.722 73.7585 14.296 73.9745 13.936C74.1905 13.564 74.4845 13.258 74.8565 13.018C75.2405 12.778 75.6845 12.604 76.1885 12.496C76.7045 12.376 77.2565 12.316 77.8445 12.316C78.3965 12.316 78.9125 12.376 79.3925 12.496C79.8725 12.604 80.2925 12.772 80.6525 13C81.0125 13.216 81.2945 13.492 81.4985 13.828C81.7025 14.152 81.8045 14.518 81.8045 14.926C81.8045 15.01 81.8045 15.088 81.8045 15.16C81.8045 15.232 81.7985 15.28 81.7865 15.304H79.3925V15.16C79.3925 14.944 79.3265 14.764 79.1945 14.62C79.0625 14.464 78.8705 14.344 78.6185 14.26C78.3785 14.176 78.0845 14.134 77.7365 14.134C77.4965 14.134 77.2745 14.152 77.0705 14.188C76.8785 14.224 76.7105 14.278 76.5665 14.35C76.4225 14.422 76.3085 14.512 76.2245 14.62C76.1525 14.716 76.1165 14.836 76.1165 14.98C76.1165 15.184 76.2005 15.352 76.3685 15.484C76.5485 15.604 76.7825 15.706 77.0705 15.79C77.3585 15.874 77.6765 15.964 78.0245 16.06C78.4565 16.18 78.9065 16.3 79.3745 16.42C79.8545 16.528 80.2985 16.678 80.7065 16.87C81.1145 17.062 81.4445 17.338 81.6965 17.698C81.9485 18.046 82.0745 18.52 82.0745 19.12C82.0745 19.696 81.9605 20.182 81.7325 20.578C81.5165 20.974 81.2105 21.292 80.8145 21.532C80.4185 21.772 79.9565 21.946 79.4285 22.054C78.9005 22.162 78.3305 22.216 77.7185 22.216Z" fill="#0A0D12"/>
<path d="M87.3245 22.216C86.3165 22.216 85.4705 22.042 84.7865 21.694C84.1025 21.334 83.5805 20.788 83.2205 20.056C82.8725 19.312 82.6985 18.382 82.6985 17.266C82.6985 16.126 82.8725 15.196 83.2205 14.476C83.5805 13.744 84.1025 13.198 84.7865 12.838C85.4825 12.478 86.3285 12.298 87.3245 12.298C87.9725 12.298 88.5545 12.376 89.0705 12.532C89.5985 12.688 90.0545 12.928 90.4385 13.252C90.8225 13.576 91.1105 13.978 91.3025 14.458C91.5065 14.926 91.6085 15.484 91.6085 16.132H89.1065C89.1065 15.7 89.0405 15.346 88.9085 15.07C88.7765 14.794 88.5725 14.584 88.2965 14.44C88.0325 14.296 87.6965 14.224 87.2885 14.224C86.8085 14.224 86.4185 14.332 86.1185 14.548C85.8185 14.764 85.5965 15.082 85.4525 15.502C85.3085 15.922 85.2365 16.444 85.2365 17.068V17.482C85.2365 18.094 85.3085 18.61 85.4525 19.03C85.6085 19.45 85.8425 19.768 86.1545 19.984C86.4665 20.188 86.8745 20.29 87.3785 20.29C87.7865 20.29 88.1225 20.218 88.3865 20.074C88.6625 19.93 88.8725 19.714 89.0165 19.426C89.1605 19.138 89.2325 18.79 89.2325 18.382H91.6085C91.6085 18.994 91.5065 19.54 91.3025 20.02C91.1105 20.5 90.8225 20.902 90.4385 21.226C90.0665 21.55 89.6165 21.796 89.0885 21.964C88.5605 22.132 87.9725 22.216 87.3245 22.216Z" fill="#0A0D12"/>
<path d="M92.7648 22V8.98596H95.2668V13.576H95.3928C95.5969 13.324 95.8368 13.108 96.1128 12.928C96.4008 12.736 96.7188 12.586 97.0668 12.478C97.4268 12.37 97.8168 12.316 98.2368 12.316C98.8608 12.316 99.4069 12.43 99.8748 12.658C100.343 12.886 100.703 13.246 100.955 13.738C101.219 14.23 101.351 14.872 101.351 15.664V22H98.8488V16.06C98.8488 15.76 98.8128 15.508 98.7408 15.304C98.6688 15.088 98.5608 14.914 98.4168 14.782C98.2848 14.638 98.1169 14.536 97.9128 14.476C97.7088 14.416 97.4809 14.386 97.2288 14.386C96.8568 14.386 96.5208 14.476 96.2208 14.656C95.9208 14.836 95.6868 15.082 95.5188 15.394C95.3508 15.706 95.2668 16.066 95.2668 16.474V22H92.7648Z" fill="#0A0D12"/>
<path d="M107.175 22.216C106.131 22.216 105.255 22.042 104.547 21.694C103.839 21.334 103.305 20.788 102.945 20.056C102.585 19.324 102.405 18.394 102.405 17.266C102.405 16.126 102.585 15.196 102.945 14.476C103.305 13.744 103.833 13.204 104.529 12.856C105.237 12.496 106.101 12.316 107.121 12.316C108.081 12.316 108.891 12.49 109.551 12.838C110.211 13.174 110.709 13.702 111.045 14.422C111.381 15.13 111.549 16.048 111.549 17.176V17.824H104.943C104.967 18.376 105.051 18.844 105.195 19.228C105.351 19.612 105.585 19.9 105.897 20.092C106.221 20.272 106.647 20.362 107.175 20.362C107.463 20.362 107.721 20.326 107.949 20.254C108.189 20.182 108.393 20.074 108.561 19.93C108.729 19.786 108.861 19.606 108.957 19.39C109.053 19.174 109.101 18.928 109.101 18.652H111.549C111.549 19.252 111.441 19.774 111.225 20.218C111.009 20.662 110.709 21.034 110.325 21.334C109.941 21.622 109.479 21.844 108.939 22C108.411 22.144 107.823 22.216 107.175 22.216ZM104.979 16.24H108.975C108.975 15.88 108.927 15.568 108.831 15.304C108.747 15.04 108.627 14.824 108.471 14.656C108.315 14.488 108.123 14.368 107.895 14.296C107.679 14.212 107.433 14.17 107.157 14.17C106.701 14.17 106.317 14.248 106.005 14.404C105.705 14.548 105.471 14.776 105.303 15.088C105.147 15.388 105.039 15.772 104.979 16.24Z" fill="#0A0D12"/>
<defs>
<clipPath id="clip0_1_3497">
<rect width="26.6667" height="32" fill="white"/>
</clipPath>
</defs>
</svg>
