<svg width="108" height="32" viewBox="0 0 108 32" fill="none" xmlns="http://www.w3.org/2000/svg">
<path fill-rule="evenodd" clip-rule="evenodd" d="M11.751 4.33337H21.6188L29.2629 16.7774L18.7438 27.41L3.61823 24.7128L0.179749 11.9062L11.751 4.33337ZM12.1026 7.6462L7.55852 17.7162L11.8588 21.2769L17.7418 18.7452L12.1026 7.6462ZM20.321 17.8462L26.4635 16.0413L21.6646 8.22904L20.321 17.8462ZM19.9101 6.33337H13.6789L18.5661 15.9523L19.9101 6.33337ZM24.5631 18.6842L20.0437 20.0122L19.6806 23.6194L24.5631 18.6842ZM17.5627 24.6896L17.951 20.8325L13.9128 22.5703L17.5627 24.6896ZM13.0031 24.3548L5.72805 23.0575L6.82635 19.7066L11.1183 23.2604L13.0031 24.3548ZM5.20458 18.2332L3.40212 16.1951L4.51457 20.3384L5.20458 18.2332ZM2.84837 12.55L6.05792 16.1791L9.72694 8.04825L2.84837 12.55Z" fill="#6938EF"/>
<path fill-rule="evenodd" clip-rule="evenodd" d="M49.8233 15.2332C49.8233 18.7712 47.5033 21.4779 44.2167 22.0386V22.5992C44.2167 23.5079 44.6033 23.8366 45.5313 23.8366H107.453V25.9439H45.3767C42.8053 25.9439 41.684 25.0159 41.684 22.7539V22.0579C38.3393 21.5166 36 18.7906 36 15.2332C36 11.2506 38.9387 8.31189 42.9213 8.31189C46.8847 8.31189 49.8233 11.2506 49.8233 15.2332ZM38.9193 15.2332C38.9193 17.7659 40.582 19.6412 42.902 19.6412C45.222 19.6412 46.904 17.7659 46.904 15.2332C46.904 12.7006 45.222 10.8059 42.902 10.8059C40.582 10.8059 38.9193 12.7006 38.9193 15.2332Z" fill="#0A0D12"/>
<path d="M55.2604 19.7572C56.4397 19.7572 57.271 18.8292 57.271 17.5919V12.2559H59.9777V21.9999H57.271V20.6466C56.7297 21.5746 55.647 22.1546 54.313 22.1546C52.1284 22.1546 50.6977 20.5499 50.6977 18.3266V12.2559H53.385V17.7272C53.385 18.9066 54.1584 19.7572 55.2604 19.7572Z" fill="#0A0D12"/>
<path fill-rule="evenodd" clip-rule="evenodd" d="M69.4705 15.7359C69.4705 13.5319 67.6725 12.1012 65.2172 12.1012C62.5492 12.1012 60.9639 13.6672 60.8479 15.6199H63.2452C63.2839 14.8079 63.8832 14.0732 65.0625 14.0732C66.1645 14.0732 66.8025 14.6339 66.8025 15.4459C66.8025 15.8519 66.5512 16.1612 66.0679 16.1612H64.4245C62.2979 16.1612 60.8672 17.3212 60.8672 19.2352C60.8672 20.8979 62.1625 22.1546 64.0572 22.1546C65.3912 22.1546 66.4739 21.5552 66.8025 20.6466V21.9999H69.4705V15.7359ZM66.8025 17.9979C66.8025 19.2352 66.0485 20.2019 64.7339 20.2019C63.9799 20.2019 63.4385 19.7572 63.4385 19.1192C63.4385 18.3652 64.0185 17.8626 64.8305 17.8626H66.8025V17.9979Z" fill="#0A0D12"/>
<path fill-rule="evenodd" clip-rule="evenodd" d="M80.7885 21.9999C78.5459 21.9999 77.0959 20.7239 77.0959 18.4619V9.37522H79.7832V12.2559H90.8898V14.4986L85.8438 19.7379H91.1798V21.6958L96.2069 8.46656H98.9715L104.114 21.9999H101.098L100.035 19.0419H95.1435L94.0802 21.9999H80.7885ZM82.7118 19.7379L87.8158 14.4986H79.7832V18.3459C79.7832 19.2932 80.2859 19.7379 81.1559 19.7379H82.7118ZM97.5989 12.2172L96.0135 16.6059H99.1649L97.5989 12.2172Z" fill="#0A0D12"/>
<path d="M73.2485 13.8799C73.7705 12.6619 74.5052 12.2559 75.6845 12.2559H76.3419V14.4986H75.1819C73.8479 14.4986 73.2485 15.6006 73.2485 17.2632V21.9999H70.5419V12.2559H73.2485V13.8799Z" fill="#0A0D12"/>
<path d="M107.454 8.46656H104.535V21.9999H107.454V8.46656Z" fill="#0A0D12"/>
</svg>
