<svg width="134" height="32" viewBox="0 0 134 32" fill="none" xmlns="http://www.w3.org/2000/svg">
<path fill-rule="evenodd" clip-rule="evenodd" d="M12.2186 22.1377C12.7713 21.4745 13.5901 21.091 14.4535 21.091H26.1818C29.3951 21.091 32 18.4861 32 15.2728V12.3637C32 9.15042 29.3951 6.54553 26.1818 6.54553H23.908C23.0446 6.54553 22.2259 6.92902 21.6732 7.59227L19.7814 9.86243C19.2287 10.5257 18.4099 10.9092 17.5465 10.9092H5.81818C2.60489 10.9092 0 13.5141 0 16.7274V19.6364C0 22.8497 2.60489 25.4546 5.81818 25.4546H8.092C8.95536 25.4546 9.77412 25.0711 10.3268 24.4079L12.2186 22.1377ZM27.6364 12.3637C27.6364 11.5604 26.9851 10.9092 26.1818 10.9092H21.7262C20.8628 10.9092 20.0441 11.2927 19.4914 11.9559L17.5996 14.2261C17.0468 14.8893 16.2281 15.2728 15.3647 15.2728H5.81818C5.01486 15.2728 4.36364 15.924 4.36364 16.7274V19.6364C4.36364 20.4398 5.01486 21.091 5.81818 21.091H10.2738C11.1372 21.091 11.9559 20.7075 12.5086 20.0443L14.4004 17.7741C14.9532 17.1108 15.7719 16.7274 16.6353 16.7274H26.1818C26.9851 16.7274 27.6364 16.0761 27.6364 15.2728V12.3637Z" fill="#0A0D12"/>
<path d="M50.0967 22.0004L48.0987 14.9624L47.8107 13.6664L47.5047 14.9624L45.5247 22.0004H42.2847L38.6667 9.76041H41.7447L43.7067 17.7884L44.0307 19.2464L44.3547 17.7884L46.6227 9.76041H49.1427L51.3927 17.7884L51.7167 19.2464L52.0407 17.7884L54.0027 9.76041H56.9187L53.3007 22.0004H50.0967Z" fill="#0A0D12"/>
<path d="M59.7756 15.5204H57.0216C57.3096 13.3424 58.9836 12.0104 61.4676 12.0104C64.2396 12.0104 65.6796 13.6304 65.6796 15.8804V19.5884C65.6796 20.8484 65.7876 21.4964 65.9496 22.0004H63.1056C63.0156 21.6764 62.9616 21.2624 62.9436 20.7944C62.1876 21.8384 61.0356 22.2884 59.8836 22.2884C58.0476 22.2884 56.6796 21.3524 56.6796 19.4984C56.6796 18.1844 57.4356 17.1764 58.9656 16.6364C60.2256 16.2224 61.4316 16.0964 62.9256 16.0784V15.8624C62.9256 14.8004 62.4036 14.2424 61.3416 14.2424C60.4056 14.2424 59.9016 14.7644 59.7756 15.5204ZM59.4336 19.3184C59.4336 19.9664 59.9196 20.3804 60.7296 20.3804C61.9536 20.3804 62.9256 19.3904 62.9256 18.0584V17.6804C60.1356 17.7344 59.4336 18.4184 59.4336 19.3184Z" fill="#0A0D12"/>
<path d="M67.28 22.0004V12.3164H70.034V13.6664C70.646 12.5144 71.582 12.0104 72.572 12.0104C72.968 12.0104 73.328 12.1184 73.526 12.3164V14.6384C73.202 14.5664 72.86 14.5304 72.428 14.5304C70.772 14.5304 70.034 15.4664 70.034 16.9964V22.0004H67.28Z" fill="#0A0D12"/>
<path d="M77.0217 25.9784H74.2677V12.3164H77.0217V13.3244C77.6157 12.4784 78.4437 12.0104 79.4517 12.0104C81.9537 12.0104 83.5197 13.9724 83.5197 17.1404C83.5197 20.4344 81.9177 22.2884 79.4517 22.2884C78.4257 22.2884 77.5977 21.8564 77.0217 21.0284V25.9784ZM78.8757 14.2424C77.6517 14.2424 77.0217 15.2684 77.0217 17.1404C77.0217 19.0124 77.6697 20.0564 78.8757 20.0564C80.0637 20.0564 80.6937 19.0304 80.6937 17.1404C80.6937 15.2684 80.0457 14.2424 78.8757 14.2424Z" fill="#0A0D12"/>
<path d="M87.0068 14.9984C87.0068 16.9064 93.0008 15.2324 93.0008 19.0664C93.0008 20.9744 91.2368 22.2884 88.7168 22.2884C86.2688 22.2884 84.5048 21.2084 84.1448 18.8144H86.8988C87.0248 19.7144 87.7628 20.2004 88.7888 20.2004C89.7608 20.2004 90.2468 19.8224 90.2468 19.2284C90.2468 17.3564 84.3788 19.0304 84.3788 15.1424C84.3788 13.5224 85.6928 12.0104 88.2848 12.0104C90.6068 12.0104 92.3708 13.0724 92.6408 15.5204H89.9048C89.7428 14.5304 89.1668 14.1164 88.1948 14.1164C87.4748 14.1164 87.0068 14.4764 87.0068 14.9984Z" fill="#0A0D12"/>
<path d="M96.7802 25.9784H94.0262V12.3164H96.7802V13.3244C97.3742 12.4784 98.2022 12.0104 99.2102 12.0104C101.712 12.0104 103.278 13.9724 103.278 17.1404C103.278 20.4344 101.676 22.2884 99.2102 22.2884C98.1842 22.2884 97.3562 21.8564 96.7802 21.0284V25.9784ZM98.6342 14.2424C97.4102 14.2424 96.7802 15.2684 96.7802 17.1404C96.7802 19.0124 97.4282 20.0564 98.6342 20.0564C99.8222 20.0564 100.452 19.0304 100.452 17.1404C100.452 15.2684 99.8042 14.2424 98.6342 14.2424Z" fill="#0A0D12"/>
<path d="M113.497 18.8144C112.993 21.0464 111.193 22.2884 108.817 22.2884C105.811 22.2884 103.957 20.3444 103.957 17.1584C103.957 13.8644 105.829 12.0104 108.709 12.0104C111.607 12.0104 113.425 13.9364 113.425 17.1044V17.7164H106.765C106.909 19.2644 107.629 20.0924 108.817 20.0924C109.717 20.0924 110.329 19.6964 110.617 18.8144H113.497ZM108.709 14.2064C107.683 14.2064 107.035 14.8724 106.819 16.1324H110.581C110.365 14.8724 109.717 14.2064 108.709 14.2064Z" fill="#0A0D12"/>
<path d="M123.702 18.8144C123.198 21.0464 121.398 22.2884 119.022 22.2884C116.016 22.2884 114.162 20.3444 114.162 17.1584C114.162 13.8644 116.034 12.0104 118.914 12.0104C121.812 12.0104 123.63 13.9364 123.63 17.1044V17.7164H116.97C117.114 19.2644 117.834 20.0924 119.022 20.0924C119.922 20.0924 120.534 19.6964 120.822 18.8144H123.702ZM118.914 14.2064C117.888 14.2064 117.24 14.8724 117.024 16.1324H120.786C120.57 14.8724 119.922 14.2064 118.914 14.2064Z" fill="#0A0D12"/>
<path d="M128.416 22.2884C125.932 22.2884 124.366 20.3444 124.366 17.1584C124.366 13.8644 125.968 12.0104 128.416 12.0104C129.442 12.0104 130.27 12.4424 130.864 13.2704V9.04041H133.618V22.0004H130.864V20.9744C130.27 21.8204 129.424 22.2884 128.416 22.2884ZM129.01 20.0564C130.234 20.0564 130.864 19.0484 130.864 17.1584C130.864 15.2864 130.216 14.2424 129.01 14.2424C127.822 14.2424 127.192 15.2684 127.192 17.1584C127.192 19.0304 127.84 20.0564 129.01 20.0564Z" fill="#0A0D12"/>
</svg>
