<svg width="127" height="32" viewBox="0 0 127 32" fill="none" xmlns="http://www.w3.org/2000/svg">
<rect x="0.333313" y="2.66663" width="6.66667" height="6.66667" fill="#155EEF"/>
<rect opacity="0.6" x="13.6666" y="2.66663" width="6.66667" height="6.66667" fill="#155EEF"/>
<rect opacity="0.6" x="7" y="9.33337" width="6.66667" height="6.66667" fill="#155EEF"/>
<rect opacity="0.45" x="13.6666" y="9.33337" width="6.66667" height="6.66667" fill="#155EEF"/>
<rect opacity="0.3" x="20.3333" y="9.33337" width="6.66667" height="6.66667" fill="#155EEF"/>
<rect opacity="0.6" x="0.333313" y="16" width="6.66667" height="6.66667" fill="#155EEF"/>
<rect opacity="0.45" x="7" y="16" width="6.66667" height="6.66667" fill="#155EEF"/>
<rect opacity="0.3" x="13.6666" y="16" width="6.66667" height="6.66667" fill="#155EEF"/>
<rect opacity="0.15" x="20.3333" y="16" width="6.66667" height="6.66667" fill="#155EEF"/>
<rect opacity="0.3" x="7" y="22.6666" width="6.66667" height="6.66667" fill="#155EEF"/>
<rect opacity="0.15" x="13.6666" y="22.6666" width="6.66667" height="6.66667" fill="#155EEF"/>
<path d="M46.9466 15.48C46.9466 17.32 46.3533 18.9 45.1666 20.22C43.9933 21.54 42.3533 22.2 40.2466 22.2C38.1266 22.2 36.5 21.54 35.3666 20.22C34.2333 18.9 33.6666 17.3333 33.6666 15.52C33.6666 13.6267 34.2666 12.0333 35.4666 10.74C36.6666 9.44666 38.2866 8.79999 40.3266 8.79999C42.4066 8.79999 44.0266 9.45999 45.1866 10.78C46.36 12.0867 46.9466 13.6533 46.9466 15.48ZM44.0466 15.56C44.0466 14.1733 43.7266 13.0933 43.0866 12.32C42.4466 11.5467 41.52 11.16 40.3066 11.16C39.0133 11.16 38.0666 11.5733 37.4666 12.4C36.8666 13.2133 36.5666 14.2333 36.5666 15.46C36.5666 16.6467 36.86 17.6733 37.4466 18.54C38.0333 19.4067 39.0133 19.84 40.3866 19.84C41.6533 19.84 42.58 19.4467 43.1666 18.66C43.7533 17.86 44.0466 16.8267 44.0466 15.56Z" fill="#0A0D12"/>
<path d="M58.1449 22H54.3649V20.32C54.1116 20.84 53.7382 21.2867 53.2449 21.66C52.7516 22.02 52.0982 22.2 51.2849 22.2C50.0982 22.2 49.1649 21.7933 48.4849 20.98C47.8049 20.1667 47.4649 19.06 47.4649 17.66C47.4649 16.3133 47.7982 15.1667 48.4649 14.22C49.1316 13.2733 50.1382 12.8 51.4849 12.8C52.2182 12.8 52.8182 12.9467 53.2849 13.24C53.7516 13.5333 54.1116 13.9067 54.3649 14.36V10.2H52.5649V8.23999H56.9449V20.06H58.1449V22ZM54.3649 17.44V17.22C54.3649 16.4733 54.1649 15.8933 53.7649 15.48C53.3782 15.0533 52.8916 14.84 52.3049 14.84C51.7316 14.84 51.2249 15.0533 50.7849 15.48C50.3582 15.9067 50.1449 16.58 50.1449 17.5C50.1449 18.3667 50.3449 19.0267 50.7449 19.48C51.1449 19.9333 51.6182 20.16 52.1649 20.16C52.8449 20.16 53.3782 19.8733 53.7649 19.3C54.1649 18.7267 54.3649 18.1067 54.3649 17.44Z" fill="#0A0D12"/>
<path d="M67.2912 19.16C67.2245 19.96 66.8312 20.6667 66.1112 21.28C65.3912 21.8933 64.3845 22.2 63.0912 22.2C61.7445 22.2 60.6312 21.82 59.7512 21.06C58.8845 20.3 58.4512 19.1667 58.4512 17.66C58.4512 16.2733 58.8445 15.12 59.6312 14.2C60.4312 13.2667 61.5445 12.8 62.9712 12.8C64.2245 12.8 65.2378 13.16 66.0112 13.88C66.7978 14.6 67.1978 15.5467 67.2112 16.72C67.2112 17.16 67.1645 17.5933 67.0712 18.02H61.1512C61.2978 19.4467 62.0045 20.16 63.2712 20.16C63.9645 20.16 64.4312 19.9933 64.6712 19.66C64.9245 19.3267 65.0778 19.0267 65.1312 18.76L67.2912 19.16ZM64.5512 16.52C64.6045 16.0667 64.5045 15.64 64.2512 15.24C64.0112 14.84 63.5845 14.64 62.9712 14.64C62.4378 14.64 62.0245 14.8133 61.7312 15.16C61.4378 15.5067 61.2512 15.96 61.1712 16.52H64.5512Z" fill="#0A0D12"/>
<path d="M68.6591 13.62C69.4458 13.3 70.0991 13.0867 70.6191 12.98C71.1525 12.86 71.7858 12.8 72.5191 12.8C73.4925 12.8 74.3325 13.0533 75.0391 13.56C75.7458 14.0667 76.0991 14.8333 76.0991 15.86V19.78C76.0991 20.2467 76.3058 20.48 76.7191 20.48C76.8391 20.48 76.9658 20.46 77.0991 20.42L77.1191 21.78C76.5991 22.06 76.0591 22.2 75.4991 22.2C74.3125 22.2 73.6525 21.6067 73.5191 20.42V20.4C73.2658 20.8533 72.8991 21.2667 72.4191 21.64C71.9525 22.0133 71.3525 22.2 70.6191 22.2C69.9658 22.2 69.3391 22.0067 68.7391 21.62C68.1391 21.2333 67.8391 20.5667 67.8391 19.62C67.8391 18.5133 68.2791 17.78 69.1591 17.42C70.0525 17.06 71.0125 16.88 72.0391 16.88C72.6125 16.88 73.1058 16.9067 73.5191 16.96V16.66C73.5191 16.1933 73.4525 15.74 73.3191 15.3C73.1991 14.86 72.7725 14.64 72.0391 14.64C71.7725 14.64 71.5258 14.66 71.2991 14.7C71.0858 14.7267 70.8725 14.7933 70.6591 14.9L70.3191 16.18L68.2591 15.96L68.6591 13.62ZM73.5191 18.32V18.2C73.3058 18.1733 73.0858 18.1467 72.8591 18.12C72.6458 18.0933 72.4325 18.08 72.2191 18.08C71.7658 18.08 71.3658 18.1667 71.0191 18.34C70.6725 18.5 70.4991 18.8267 70.4991 19.32C70.4991 19.6133 70.5791 19.86 70.7391 20.06C70.8991 20.26 71.1725 20.36 71.5591 20.36C72.0125 20.36 72.4325 20.2 72.8191 19.88C73.2191 19.5467 73.4525 19.0267 73.5191 18.32Z" fill="#0A0D12"/>
<path d="M87.0763 17.5C87.0763 18.9267 86.6097 20.0667 85.6763 20.92C84.743 21.7733 83.5563 22.2 82.1163 22.2C80.7296 22.2 79.5963 21.8 78.7163 21C77.8496 20.1867 77.4163 19.0533 77.4163 17.6C77.4163 16.28 77.8163 15.1467 78.6163 14.2C79.4163 13.2533 80.6296 12.78 82.2563 12.78C83.883 12.78 85.0896 13.2533 85.8763 14.2C86.6763 15.1333 87.0763 16.2333 87.0763 17.5ZM84.4163 17.42C84.4163 16.5 84.203 15.8267 83.7763 15.4C83.3496 14.9733 82.8296 14.76 82.2163 14.76C81.5496 14.76 81.023 15 80.6363 15.48C80.263 15.9467 80.0763 16.6067 80.0763 17.46C80.0763 18.2333 80.2496 18.8867 80.5963 19.42C80.9563 19.9533 81.4896 20.22 82.1963 20.22C82.863 20.22 83.3963 19.9733 83.7963 19.48C84.2096 18.9733 84.4163 18.2867 84.4163 17.42Z" fill="#0A0D12"/>
<path d="M97.1954 22H87.4354V19.72H88.8354V11.28H87.4354V8.99999H93.3354V11.28H91.5154V19.72H94.9154L95.3154 17.2L97.5954 17.4L97.1954 22Z" fill="#0A0D12"/>
<path d="M98.7677 13.62C99.5544 13.3 100.208 13.0867 100.728 12.98C101.261 12.86 101.894 12.8 102.628 12.8C103.601 12.8 104.441 13.0533 105.148 13.56C105.854 14.0667 106.208 14.8333 106.208 15.86V19.78C106.208 20.2467 106.414 20.48 106.828 20.48C106.948 20.48 107.074 20.46 107.208 20.42L107.228 21.78C106.708 22.06 106.168 22.2 105.608 22.2C104.421 22.2 103.761 21.6067 103.628 20.42V20.4C103.374 20.8533 103.008 21.2667 102.528 21.64C102.061 22.0133 101.461 22.2 100.728 22.2C100.074 22.2 99.4477 22.0067 98.8477 21.62C98.2477 21.2333 97.9477 20.5667 97.9477 19.62C97.9477 18.5133 98.3877 17.78 99.2677 17.42C100.161 17.06 101.121 16.88 102.148 16.88C102.721 16.88 103.214 16.9067 103.628 16.96V16.66C103.628 16.1933 103.561 15.74 103.428 15.3C103.308 14.86 102.881 14.64 102.148 14.64C101.881 14.64 101.634 14.66 101.408 14.7C101.194 14.7267 100.981 14.7933 100.768 14.9L100.428 16.18L98.3677 15.96L98.7677 13.62ZM103.628 18.32V18.2C103.414 18.1733 103.194 18.1467 102.968 18.12C102.754 18.0933 102.541 18.08 102.328 18.08C101.874 18.08 101.474 18.1667 101.128 18.34C100.781 18.5 100.608 18.8267 100.608 19.32C100.608 19.6133 100.688 19.86 100.848 20.06C101.008 20.26 101.281 20.36 101.668 20.36C102.121 20.36 102.541 20.2 102.928 19.88C103.328 19.5467 103.561 19.0267 103.628 18.32Z" fill="#0A0D12"/>
<path d="M117.725 17.28C117.725 18.6133 117.372 19.7667 116.665 20.74C115.972 21.7133 114.945 22.2 113.585 22.2C112.212 22.2 111.245 21.68 110.685 20.64C110.658 20.8667 110.625 21.0933 110.585 21.32C110.558 21.5467 110.525 21.7733 110.485 22H107.905C107.998 21.5333 108.078 21.0667 108.145 20.6C108.212 20.1333 108.245 19.6733 108.245 19.22V10.2H107.045V8.23999H110.825V14.7C111.065 14.18 111.425 13.7333 111.905 13.36C112.398 12.9867 113.052 12.8 113.865 12.8C114.998 12.8 115.925 13.1933 116.645 13.98C117.365 14.7667 117.725 15.8667 117.725 17.28ZM115.045 17.5C115.045 16.6333 114.858 15.9733 114.485 15.52C114.112 15.0667 113.618 14.84 113.005 14.84C112.312 14.84 111.772 15.0933 111.385 15.6C111.012 16.1067 110.825 16.6933 110.825 17.36V17.58C110.825 18.3133 111.005 18.9333 111.365 19.44C111.738 19.9333 112.265 20.18 112.945 20.18C113.532 20.18 114.025 19.9667 114.425 19.54C114.838 19.1 115.045 18.42 115.045 17.5Z" fill="#0A0D12"/>
<path d="M126.441 19.24C126.441 20.24 126.041 20.9867 125.241 21.48C124.454 21.96 123.427 22.2 122.161 22.2C121.507 22.2 120.847 22.1333 120.181 22C119.527 21.8533 118.901 21.6267 118.301 21.32L118.661 18.8L120.661 19.02V20.14C120.901 20.22 121.154 20.2733 121.421 20.3C121.687 20.3133 121.887 20.32 122.021 20.32C122.514 20.32 122.941 20.24 123.301 20.08C123.661 19.92 123.841 19.68 123.841 19.36C123.841 18.9733 123.567 18.72 123.021 18.6C122.474 18.48 121.841 18.36 121.121 18.24C120.401 18.12 119.767 17.8733 119.221 17.5C118.674 17.1267 118.401 16.4933 118.401 15.6C118.401 14.4933 118.827 13.7533 119.681 13.38C120.547 12.9933 121.441 12.8 122.361 12.8C123.561 12.8 124.687 13.0733 125.741 13.62L125.961 15.92L123.961 16.14L123.801 14.88C123.361 14.7333 122.887 14.66 122.381 14.66C122.047 14.66 121.761 14.7333 121.521 14.88C121.294 15.0133 121.181 15.2267 121.181 15.52C121.181 15.9067 121.441 16.1667 121.961 16.3C122.494 16.42 123.107 16.54 123.801 16.66C124.507 16.78 125.121 17.0267 125.641 17.4C126.174 17.76 126.441 18.3733 126.441 19.24Z" fill="#0A0D12"/>
</svg>
