<svg width="174" height="48" viewBox="0 0 174 48" fill="none" xmlns="http://www.w3.org/2000/svg">
<path d="M40.866 32.8333V14.064H44.2981L53.1197 27.2829V14.064H56.5518V32.8333H53.1197L44.2981 19.6411V32.8333H40.866Z" fill="black"/>
<path d="M65.2314 33.1551C63.8907 33.1551 62.702 32.8691 61.6652 32.297C60.6284 31.725 59.8151 30.9206 59.2252 29.8838C58.6353 28.8471 58.3403 27.6494 58.3403 26.2908C58.3403 24.9144 58.6263 23.69 59.1984 22.6174C59.7883 21.5449 60.5927 20.7137 61.6116 20.1238C62.6483 19.516 63.8639 19.2121 65.2582 19.2121C66.5631 19.2121 67.7161 19.4981 68.7171 20.0702C69.7181 20.6422 70.4957 21.4287 71.0499 22.4297C71.6219 23.4129 71.9079 24.5122 71.9079 25.7278C71.9079 25.9244 71.8989 26.13 71.8811 26.3445C71.8811 26.559 71.8721 26.7824 71.8543 27.0148H61.7456C61.8171 28.0516 62.1746 28.8649 62.8182 29.4548C63.4796 30.0447 64.275 30.3397 65.2045 30.3397C65.9017 30.3397 66.4827 30.1877 66.9474 29.8838C67.4301 29.5621 67.7876 29.1509 68.0199 28.6504H71.5057C71.2554 29.4906 70.8354 30.2592 70.2455 30.9564C69.6734 31.6356 68.9584 32.1719 68.1004 32.5652C67.2602 32.9584 66.3039 33.1551 65.2314 33.1551ZM65.2582 22.0007C64.418 22.0007 63.6762 22.242 63.0327 22.7247C62.3891 23.1894 61.978 23.9045 61.7993 24.8697H68.4221C68.3685 23.9938 68.0468 23.2967 67.4569 22.7783C66.867 22.2599 66.1341 22.0007 65.2582 22.0007Z" fill="black"/>
<path d="M71.2771 32.8333L76.1035 26.1836L71.2771 19.5339H74.9506L78.329 24.253L81.6807 19.5339H85.381L80.5277 26.1836L85.381 32.8333H81.6807L78.329 28.1142L74.9506 32.8333H71.2771Z" fill="black"/>
<path d="M92.1526 32.8333C90.7583 32.8333 89.6411 32.4937 88.8009 31.8144C87.9608 31.1351 87.5407 29.9285 87.5407 28.1946V22.4029H85.2616V19.5339H87.5407L87.9429 15.9677H90.9728V19.5339H94.5658V22.4029H90.9728V28.2214C90.9728 28.8649 91.1069 29.3118 91.375 29.5621C91.661 29.7945 92.1436 29.9106 92.8229 29.9106H94.4853V32.8333H92.1526Z" fill="black"/>
<path d="M96.1719 32.8333V19.5339H99.2018L99.4967 21.3304C99.9257 20.6869 100.489 20.1774 101.186 19.802C101.901 19.4088 102.723 19.2121 103.653 19.2121C105.708 19.2121 107.165 20.0076 108.023 21.5985C108.506 20.8656 109.15 20.2847 109.954 19.8556C110.776 19.4266 111.67 19.2121 112.635 19.2121C114.369 19.2121 115.701 19.7305 116.63 20.7673C117.56 21.8041 118.025 23.3235 118.025 25.3256V32.8333H114.593V25.6473C114.593 24.5033 114.369 23.6274 113.922 23.0196C113.493 22.4119 112.823 22.108 111.911 22.108C110.982 22.108 110.231 22.4476 109.659 23.1269C109.105 23.8061 108.828 24.7536 108.828 25.9691V32.8333H105.396V25.6473C105.396 24.5033 105.172 23.6274 104.725 23.0196C104.278 22.4119 103.59 22.108 102.661 22.108C101.749 22.108 101.007 22.4476 100.435 23.1269C99.881 23.8061 99.604 24.7536 99.604 25.9691V32.8333H96.1719Z" fill="black"/>
<path d="M126.324 33.1551C125.037 33.1551 123.875 32.8601 122.838 32.2702C121.819 31.6803 121.006 30.867 120.398 29.8302C119.808 28.7756 119.513 27.56 119.513 26.1836C119.513 24.8072 119.817 23.6006 120.425 22.5638C121.033 21.5091 121.846 20.6869 122.865 20.097C123.902 19.5071 125.064 19.2121 126.351 19.2121C127.62 19.2121 128.764 19.5071 129.783 20.097C130.82 20.6869 131.633 21.5091 132.223 22.5638C132.831 23.6006 133.135 24.8072 133.135 26.1836C133.135 27.56 132.831 28.7756 132.223 29.8302C131.633 30.867 130.82 31.6803 129.783 32.2702C128.746 32.8601 127.593 33.1551 126.324 33.1551ZM126.324 30.1788C127.218 30.1788 127.995 29.8481 128.657 29.1867C129.318 28.5074 129.649 27.5064 129.649 26.1836C129.649 24.8608 129.318 23.8687 128.657 23.2073C127.995 22.528 127.227 22.1884 126.351 22.1884C125.439 22.1884 124.653 22.528 123.991 23.2073C123.348 23.8687 123.026 24.8608 123.026 26.1836C123.026 27.5064 123.348 28.5074 123.991 29.1867C124.653 29.8481 125.43 30.1788 126.324 30.1788Z" fill="black"/>
<path d="M137.801 32.8333L132.921 19.5339H136.514L139.892 29.5889L143.271 19.5339H146.864L141.957 32.8333H137.801Z" fill="black"/>
<path d="M153.495 33.1551C152.155 33.1551 150.966 32.8691 149.929 32.297C148.892 31.725 148.079 30.9206 147.489 29.8838C146.899 28.8471 146.604 27.6494 146.604 26.2908C146.604 24.9144 146.89 23.69 147.462 22.6174C148.052 21.5449 148.857 20.7137 149.876 20.1238C150.912 19.516 152.128 19.2121 153.522 19.2121C154.827 19.2121 155.98 19.4981 156.981 20.0702C157.982 20.6422 158.76 21.4287 159.314 22.4297C159.886 23.4129 160.172 24.5122 160.172 25.7278C160.172 25.9244 160.163 26.13 160.145 26.3445C160.145 26.559 160.136 26.7824 160.118 27.0148H150.01C150.081 28.0516 150.439 28.8649 151.082 29.4548C151.744 30.0447 152.539 30.3397 153.469 30.3397C154.166 30.3397 154.747 30.1877 155.211 29.8838C155.694 29.5621 156.052 29.1509 156.284 28.6504H159.77C159.519 29.4906 159.099 30.2592 158.51 30.9564C157.938 31.6356 157.222 32.1719 156.364 32.5652C155.524 32.9584 154.568 33.1551 153.495 33.1551ZM153.522 22.0007C152.682 22.0007 151.94 22.242 151.297 22.7247C150.653 23.1894 150.242 23.9045 150.063 24.8697H156.686C156.633 23.9938 156.311 23.2967 155.721 22.7783C155.131 22.2599 154.398 22.0007 153.522 22.0007Z" fill="black"/>
<path d="M23.9423 13.6991V22.1841C23.9423 23.1525 23.1572 23.9376 22.1888 23.9376L13.7038 23.9376L13.7038 20.4305H17.9507L13.4886 15.9685L15.9685 13.4886L20.4352 17.9554L20.4352 13.6991L23.9423 13.6991Z" fill="black"/>
<path d="M34.3006 24.0578H25.8157C24.8472 24.0578 24.0622 24.8429 24.0622 25.8114V34.2963L27.5692 34.2963L27.5692 30.0491L32.0316 34.5114L34.5114 32.0316L30.0447 27.5649H34.3006V24.0578Z" fill="black"/>
</svg>
